<svg xmlns="http://www.w3.org/2000/svg" width="240" height="300" viewBox="0 0 240 300">
<rect x="3" y="3" width="234" height="294" rx="18" fill="#241b06" stroke="#d4a72c" stroke-width="4"/>
<rect x="3" y="3" width="234" height="294" rx="18" fill="none" stroke="#fff3c4" stroke-width="1" opacity="0.5"/>
<ellipse cx="120.0" cy="260" rx="73.6" ry="12" fill="#000" opacity="0.28"/>
<polygon points="97.0,254.0 143.0,254.0 137.7,190.0 102.3,190.0" fill="#5a3d27"/>
<polygon points="97.0,254.0 101.0,254.0 106.3,190.0 102.3,190.0" fill="#6e4d33"/>

<ellipse cx="120.0" cy="127.2" rx="72.0" ry="73.5" fill="hsl(148,55%,38%)"/>
<ellipse cx="120.0" cy="136.0" rx="54.7" ry="56.2" fill="hsl(148,60%,50%)"/>
<ellipse cx="120.0" cy="144.8" rx="37.4" ry="38.9" fill="hsl(148,65%,62%)"/>
<circle cx="109.9" cy="216.9" r="6" fill="#f6f1e7"/>
<circle cx="109.9" cy="217.9" r="3" fill="#1a1208"/>
<circle cx="130.1" cy="216.9" r="6" fill="#f6f1e7"/>
<circle cx="130.1" cy="217.9" r="3" fill="#1a1208"/>
<path d="M113.0,228.88 Q120.0,234.88 127.0,228.88" stroke="#1a1208" stroke-width="2.5" fill="none"/>
<rect x="14" y="266" width="212" height="24" rx="8" fill="#d4a72c" opacity="0.92"/>
<text x="120.0" y="283" text-anchor="middle" font-family="Georgia, serif" font-size="14" font-weight="bold" fill="#f6f1e7">Dawn redwood</text>
</svg>