<svg xmlns="http://www.w3.org/2000/svg" width="240" height="300" viewBox="0 0 240 300">
<defs><linearGradient id="gMetasequoia" x1="0" y1="0" x2="0" y2="1"><stop offset="0" stop-color="#a4a438"/><stop offset="0.55" stop-color="#6c7337"/><stop offset="1" stop-color="#42501e"/></linearGradient></defs>
<rect x="3" y="3" width="234" height="294" rx="18" fill="#241b06" stroke="#d4a72c" stroke-width="4"/>
<rect x="3" y="3" width="234" height="294" rx="18" fill="none" stroke="#fff3c4" stroke-width="1" opacity="0.5"/>
<ellipse cx="120.0" cy="260" rx="73.6" ry="12" fill="#000" opacity="0.28"/>
<polygon points="97.0,254.0 143.0,254.0 137.7,190.0 102.3,190.0" fill="#978143"/>
<polygon points="42.5,212.0 42.5,146.2 44.8,143.7 47.1,142.1 49.3,136.9 51.6,134.3 53.9,132.7 56.2,128.8 58.5,124.6 60.7,120.7 63.0,114.5 65.3,108.4 67.6,104.5 69.9,100.6 72.1,95.7 74.4,91.8 76.7,87.9 79.0,84.0 81.2,79.8 83.5,76.6 85.8,74.3 88.1,71.7 90.4,67.8 92.6,63.9 94.9,60.7 97.2,57.1 99.5,53.8 101.8,51.9 104.0,50.3 106.3,48.6 108.6,48.0 110.9,48.3 113.2,49.9 115.4,51.9 117.7,55.1 120.0,59.7 122.3,63.6 124.6,67.2 126.8,72.0 129.1,76.6 131.4,80.5 133.7,84.0 136.0,87.3 138.2,92.1 140.5,96.4 142.8,99.9 145.1,105.8 147.4,111.9 149.6,117.1 151.9,123.6 154.2,129.8 156.5,136.6 158.8,143.1 161.0,148.0 163.3,152.2 165.6,157.1 167.9,163.0 170.1,168.7 172.4,172.6 174.7,175.5 177.0,179.2 179.3,179.2 181.5,177.8 183.8,179.1 186.1,179.1 188.4,176.7 190.7,174.3 192.9,173.0 195.2,170.9 197.5,169.5 197.5,212.0" fill="url(#gMetasequoia)"/>
<ellipse cx="101.4" cy="121.8" rx="27.9" ry="32.8" fill="#a4a438" opacity="0.35"/>
<circle cx="109.9" cy="216.9" r="6" fill="#f6f1e7"/>
<circle cx="109.9" cy="217.9" r="3" fill="#1a1208"/>
<circle cx="130.1" cy="216.9" r="6" fill="#f6f1e7"/>
<circle cx="130.1" cy="217.9" r="3" fill="#1a1208"/>
<path d="M113.0,228.88 Q120.0,234.88 127.0,228.88" stroke="#1a1208" stroke-width="2.5" fill="none"/>
<rect x="14" y="266" width="212" height="24" rx="8" fill="#d4a72c" opacity="0.92"/>
<text x="120.0" y="283" text-anchor="middle" font-family="Georgia, serif" font-size="14" font-weight="bold" fill="#f6f1e7">Dawn redwood</text>
</svg>